<svg xmlns="http://www.w3.org/2000/svg" width="1200" height="630" viewBox="0 0 1200 630">
  <defs>
    <radialGradient id="bgGrad" cx="80%" cy="0%" r="60%">
      <stop offset="0%" stop-color="#4f46e5" stop-opacity="0.28"/>
      <stop offset="100%" stop-color="#0a0a0b" stop-opacity="0"/>
    </radialGradient>
    <pattern id="grid" width="40" height="40" patternUnits="userSpaceOnUse">
      <path d="M 40 0 L 0 0 0 40" fill="none" stroke="#1e1e24" stroke-width="1"/>
    </pattern>
  </defs>
  <rect width="1200" height="630" fill="#0a0a0b"/>
  <rect width="1200" height="630" fill="url(#grid)" opacity="0.6"/>
  <rect width="1200" height="630" fill="url(#bgGrad)"/>

  <g transform="translate(80, 90)">
    <g>
      <rect x="0" y="0" width="40" height="40" rx="8" fill="#16161a" stroke="#26262c"/>
      <path d="M10 32 L20 8 L30 32" fill="none" stroke="#4f46e5" stroke-width="2" stroke-linecap="round" stroke-linejoin="round"/>
      <path d="M14 23 H26" stroke="#e8e8ec" stroke-width="2" stroke-linecap="round"/>
    </g>
    <text x="56" y="28" font-family="Inter, system-ui, sans-serif" font-weight="600" font-size="22" fill="#e8e8ec">AK Systems</text>
  </g>

  <text x="80" y="300" font-family="Inter, system-ui, sans-serif" font-weight="600" font-size="72" fill="#e8e8ec" letter-spacing="-1.5">
    Инженерные системы
  </text>
  <text x="80" y="386" font-family="Inter, system-ui, sans-serif" font-weight="600" font-size="72" fill="#8b8b93" letter-spacing="-1.5">
    для бизнеса, который
  </text>
  <text x="80" y="472" font-family="Inter, system-ui, sans-serif" font-weight="600" font-size="72" fill="#8b8b93" letter-spacing="-1.5">
    перерос таблицы
  </text>

  <text x="80" y="552" font-family="ui-monospace, 'JetBrains Mono', monospace" font-size="18" fill="#8b8b93" letter-spacing="3">
    БИТРИКС24 · ПЛАТФОРМЫ · АУДИТЫ
  </text>

  <g transform="translate(900, 160)" opacity="0.9">
    <circle cx="80" cy="80" r="5" fill="#4f46e5"/>
    <circle cx="180" cy="40" r="3" fill="#e8e8ec" opacity="0.6"/>
    <circle cx="240" cy="140" r="3" fill="#e8e8ec" opacity="0.6"/>
    <circle cx="130" cy="200" r="5" fill="#4f46e5"/>
    <circle cx="40" cy="180" r="3" fill="#e8e8ec" opacity="0.6"/>
    <circle cx="200" cy="250" r="3" fill="#e8e8ec" opacity="0.6"/>
    <line x1="80" y1="80" x2="180" y2="40" stroke="#8b8b93" stroke-opacity="0.3"/>
    <line x1="80" y1="80" x2="240" y2="140" stroke="#8b8b93" stroke-opacity="0.3"/>
    <line x1="80" y1="80" x2="130" y2="200" stroke="#8b8b93" stroke-opacity="0.3"/>
    <line x1="180" y1="40" x2="240" y2="140" stroke="#8b8b93" stroke-opacity="0.3"/>
    <line x1="130" y1="200" x2="40" y2="180" stroke="#8b8b93" stroke-opacity="0.3"/>
    <line x1="130" y1="200" x2="200" y2="250" stroke="#8b8b93" stroke-opacity="0.3"/>
    <line x1="240" y1="140" x2="200" y2="250" stroke="#8b8b93" stroke-opacity="0.3"/>
  </g>
</svg>
